<svg id="visual" viewBox="0 0 900 450" width="900" height="450" xmlns="http://www.w3.org/2000/svg" xmlns:xlink="http://www.w3.org/1999/xlink" version="1.1"><rect x="0" y="0" width="900" height="450" fill="#171717"></rect><path d="M0 83L50 83L50 119L100 119L100 135L150 135L150 131L200 131L200 105L250 105L250 103L300 103L300 125L350 125L350 114L400 114L400 107L450 107L450 138L500 138L500 93L550 93L550 117L600 117L600 102L650 102L650 85L700 85L700 79L750 79L750 106L800 106L800 111L850 111L850 134L900 134L900 94L900 451L900 451L850 451L850 451L800 451L800 451L750 451L750 451L700 451L700 451L650 451L650 451L600 451L600 451L550 451L550 451L500 451L500 451L450 451L450 451L400 451L400 451L350 451L350 451L300 451L300 451L250 451L250 451L200 451L200 451L150 451L150 451L100 451L100 451L50 451L50 451L0 451Z" fill="#9d9d9d"></path><path d="M0 113L50 113L50 113L100 113L100 126L150 126L150 163L200 163L200 136L250 136L250 161L300 161L300 145L350 145L350 133L400 133L400 161L450 161L450 164L500 164L500 127L550 127L550 153L600 153L600 113L650 113L650 111L700 111L700 124L750 124L750 137L800 137L800 109L850 109L850 154L900 154L900 113L900 451L900 451L850 451L850 451L800 451L800 451L750 451L750 451L700 451L700 451L650 451L650 451L600 451L600 451L550 451L550 451L500 451L500 451L450 451L450 451L400 451L400 451L350 451L350 451L300 451L300 451L250 451L250 451L200 451L200 451L150 451L150 451L100 451L100 451L50 451L50 451L0 451Z" fill="#8f8f8f"></path><path d="M0 170L50 170L50 157L100 157L100 143L150 143L150 160L200 160L200 179L250 179L250 194L300 194L300 183L350 183L350 142L400 142L400 140L450 140L450 190L500 190L500 184L550 184L550 165L600 165L600 149L650 149L650 166L700 166L700 168L750 168L750 177L800 177L800 164L850 164L850 172L900 172L900 170L900 451L900 451L850 451L850 451L800 451L800 451L750 451L750 451L700 451L700 451L650 451L650 451L600 451L600 451L550 451L550 451L500 451L500 451L450 451L450 451L400 451L400 451L350 451L350 451L300 451L300 451L250 451L250 451L200 451L200 451L150 451L150 451L100 451L100 451L50 451L50 451L0 451Z" fill="#828282"></path><path d="M0 172L50 172L50 203L100 203L100 200L150 200L150 171L200 171L200 169L250 169L250 200L300 200L300 173L350 173L350 172L400 172L400 198L450 198L450 179L500 179L500 189L550 189L550 199L600 199L600 213L650 213L650 206L700 206L700 192L750 192L750 175L800 175L800 177L850 177L850 205L900 205L900 175L900 451L900 451L850 451L850 451L800 451L800 451L750 451L750 451L700 451L700 451L650 451L650 451L600 451L600 451L550 451L550 451L500 451L500 451L450 451L450 451L400 451L400 451L350 451L350 451L300 451L300 451L250 451L250 451L200 451L200 451L150 451L150 451L100 451L100 451L50 451L50 451L0 451Z" fill="#757575"></path><path d="M0 234L50 234L50 204L100 204L100 230L150 230L150 225L200 225L200 202L250 202L250 230L300 230L300 202L350 202L350 226L400 226L400 237L450 237L450 231L500 231L500 232L550 232L550 230L600 230L600 218L650 218L650 200L700 200L700 223L750 223L750 228L800 228L800 237L850 237L850 207L900 207L900 237L900 451L900 451L850 451L850 451L800 451L800 451L750 451L750 451L700 451L700 451L650 451L650 451L600 451L600 451L550 451L550 451L500 451L500 451L450 451L450 451L400 451L400 451L350 451L350 451L300 451L300 451L250 451L250 451L200 451L200 451L150 451L150 451L100 451L100 451L50 451L50 451L0 451Z" fill="#686868"></path><path d="M0 241L50 241L50 235L100 235L100 240L150 240L150 268L200 268L200 232L250 232L250 231L300 231L300 265L350 265L350 239L400 239L400 268L450 268L450 256L500 256L500 228L550 228L550 230L600 230L600 234L650 234L650 261L700 261L700 265L750 265L750 263L800 263L800 257L850 257L850 240L900 240L900 241L900 451L900 451L850 451L850 451L800 451L800 451L750 451L750 451L700 451L700 451L650 451L650 451L600 451L600 451L550 451L550 451L500 451L500 451L450 451L450 451L400 451L400 451L350 451L350 451L300 451L300 451L250 451L250 451L200 451L200 451L150 451L150 451L100 451L100 451L50 451L50 451L0 451Z" fill="#5b5b5b"></path><path d="M0 268L50 268L50 270L100 270L100 259L150 259L150 280L200 280L200 265L250 265L250 276L300 276L300 280L350 280L350 280L400 280L400 274L450 274L450 286L500 286L500 272L550 272L550 278L600 278L600 275L650 275L650 264L700 264L700 282L750 282L750 262L800 262L800 291L850 291L850 275L900 275L900 273L900 451L900 451L850 451L850 451L800 451L800 451L750 451L750 451L700 451L700 451L650 451L650 451L600 451L600 451L550 451L550 451L500 451L500 451L450 451L450 451L400 451L400 451L350 451L350 451L300 451L300 451L250 451L250 451L200 451L200 451L150 451L150 451L100 451L100 451L50 451L50 451L0 451Z" fill="#4f4f4f"></path><path d="M0 290L50 290L50 304L100 304L100 296L150 296L150 319L200 319L200 321L250 321L250 304L300 304L300 286L350 286L350 288L400 288L400 290L450 290L450 298L500 298L500 311L550 311L550 311L600 311L600 318L650 318L650 318L700 318L700 302L750 302L750 293L800 293L800 291L850 291L850 304L900 304L900 294L900 451L900 451L850 451L850 451L800 451L800 451L750 451L750 451L700 451L700 451L650 451L650 451L600 451L600 451L550 451L550 451L500 451L500 451L450 451L450 451L400 451L400 451L350 451L350 451L300 451L300 451L250 451L250 451L200 451L200 451L150 451L150 451L100 451L100 451L50 451L50 451L0 451Z" fill="#434343"></path><path d="M0 323L50 323L50 342L100 342L100 320L150 320L150 316L200 316L200 341L250 341L250 321L300 321L300 335L350 335L350 334L400 334L400 327L450 327L450 325L500 325L500 328L550 328L550 335L600 335L600 330L650 330L650 344L700 344L700 341L750 341L750 316L800 316L800 337L850 337L850 318L900 318L900 340L900 451L900 451L850 451L850 451L800 451L800 451L750 451L750 451L700 451L700 451L650 451L650 451L600 451L600 451L550 451L550 451L500 451L500 451L450 451L450 451L400 451L400 451L350 451L350 451L300 451L300 451L250 451L250 451L200 451L200 451L150 451L150 451L100 451L100 451L50 451L50 451L0 451Z" fill="#373737"></path><path d="M0 354L50 354L50 351L100 351L100 356L150 356L150 360L200 360L200 355L250 355L250 365L300 365L300 348L350 348L350 368L400 368L400 354L450 354L450 358L500 358L500 345L550 345L550 364L600 364L600 363L650 363L650 345L700 345L700 347L750 347L750 363L800 363L800 358L850 358L850 358L900 358L900 370L900 451L900 451L850 451L850 451L800 451L800 451L750 451L750 451L700 451L700 451L650 451L650 451L600 451L600 451L550 451L550 451L500 451L500 451L450 451L450 451L400 451L400 451L350 451L350 451L300 451L300 451L250 451L250 451L200 451L200 451L150 451L150 451L100 451L100 451L50 451L50 451L0 451Z" fill="#2c2c2c"></path><path d="M0 388L50 388L50 391L100 391L100 397L150 397L150 376L200 376L200 397L250 397L250 383L300 383L300 394L350 394L350 381L400 381L400 376L450 376L450 397L500 397L500 393L550 393L550 390L600 390L600 381L650 381L650 379L700 379L700 390L750 390L750 394L800 394L800 398L850 398L850 382L900 382L900 389L900 451L900 451L850 451L850 451L800 451L800 451L750 451L750 451L700 451L700 451L650 451L650 451L600 451L600 451L550 451L550 451L500 451L500 451L450 451L450 451L400 451L400 451L350 451L350 451L300 451L300 451L250 451L250 451L200 451L200 451L150 451L150 451L100 451L100 451L50 451L50 451L0 451Z" fill="#212121"></path><path d="M0 424L50 424L50 413L100 413L100 424L150 424L150 413L200 413L200 413L250 413L250 416L300 416L300 421L350 421L350 412L400 412L400 408L450 408L450 418L500 418L500 422L550 422L550 422L600 422L600 409L650 409L650 421L700 421L700 415L750 415L750 414L800 414L800 414L850 414L850 407L900 407L900 420L900 451L900 451L850 451L850 451L800 451L800 451L750 451L750 451L700 451L700 451L650 451L650 451L600 451L600 451L550 451L550 451L500 451L500 451L450 451L450 451L400 451L400 451L350 451L350 451L300 451L300 451L250 451L250 451L200 451L200 451L150 451L150 451L100 451L100 451L50 451L50 451L0 451Z" fill="#171717"></path></svg>