<svg id="visual" viewBox="0 0 960 540" width="960" height="540" xmlns="http://www.w3.org/2000/svg" xmlns:xlink="http://www.w3.org/1999/xlink" version="1.1"><rect x="0" y="0" width="960" height="540" fill="#8605ff"></rect><path d="M0 278L51 278L51 272L101 272L101 252L152 252L152 254L202 254L202 290L253 290L253 286L303 286L303 309L354 309L354 293L404 293L404 256L455 256L455 273L505 273L505 256L556 256L556 308L606 308L606 258L657 258L657 305L707 305L707 263L758 263L758 267L808 267L808 287L859 287L859 261L909 261L909 270L960 270L960 261L960 0L960 0L909 0L909 0L859 0L859 0L808 0L808 0L758 0L758 0L707 0L707 0L657 0L657 0L606 0L606 0L556 0L556 0L505 0L505 0L455 0L455 0L404 0L404 0L354 0L354 0L303 0L303 0L253 0L253 0L202 0L202 0L152 0L152 0L101 0L101 0L51 0L51 0L0 0Z" fill="#ad68ef"></path><path d="M0 247L51 247L51 268L101 268L101 232L152 232L152 241L202 241L202 257L253 257L253 273L303 273L303 233L354 233L354 227L404 227L404 237L455 237L455 265L505 265L505 228L556 228L556 232L606 232L606 236L657 236L657 231L707 231L707 269L758 269L758 268L808 268L808 251L859 251L859 261L909 261L909 251L960 251L960 280L960 0L960 0L909 0L909 0L859 0L859 0L808 0L808 0L758 0L758 0L707 0L707 0L657 0L657 0L606 0L606 0L556 0L556 0L505 0L505 0L455 0L455 0L404 0L404 0L354 0L354 0L303 0L303 0L253 0L253 0L202 0L202 0L152 0L152 0L101 0L101 0L51 0L51 0L0 0Z" fill="#b879f1"></path><path d="M0 201L51 201L51 222L101 222L101 221L152 221L152 216L202 216L202 241L253 241L253 209L303 209L303 200L354 200L354 218L404 218L404 242L455 242L455 236L505 236L505 203L556 203L556 234L606 234L606 249L657 249L657 205L707 205L707 210L758 210L758 208L808 208L808 204L859 204L859 243L909 243L909 224L960 224L960 238L960 0L960 0L909 0L909 0L859 0L859 0L808 0L808 0L758 0L758 0L707 0L707 0L657 0L657 0L606 0L606 0L556 0L556 0L505 0L505 0L455 0L455 0L404 0L404 0L354 0L354 0L303 0L303 0L253 0L253 0L202 0L202 0L152 0L152 0L101 0L101 0L51 0L51 0L0 0Z" fill="#c28af3"></path><path d="M0 173L51 173L51 216L101 216L101 205L152 205L152 175L202 175L202 179L253 179L253 185L303 185L303 198L354 198L354 193L404 193L404 214L455 214L455 175L505 175L505 194L556 194L556 181L606 181L606 214L657 214L657 217L707 217L707 210L758 210L758 194L808 194L808 214L859 214L859 206L909 206L909 201L960 201L960 205L960 0L960 0L909 0L909 0L859 0L859 0L808 0L808 0L758 0L758 0L707 0L707 0L657 0L657 0L606 0L606 0L556 0L556 0L505 0L505 0L455 0L455 0L404 0L404 0L354 0L354 0L303 0L303 0L253 0L253 0L202 0L202 0L152 0L152 0L101 0L101 0L51 0L51 0L0 0Z" fill="#cc9bf5"></path><path d="M0 154L51 154L51 164L101 164L101 158L152 158L152 188L202 188L202 178L253 178L253 171L303 171L303 164L354 164L354 162L404 162L404 181L455 181L455 188L505 188L505 194L556 194L556 192L606 192L606 147L657 147L657 181L707 181L707 149L758 149L758 171L808 171L808 148L859 148L859 155L909 155L909 189L960 189L960 190L960 0L960 0L909 0L909 0L859 0L859 0L808 0L808 0L758 0L758 0L707 0L707 0L657 0L657 0L606 0L606 0L556 0L556 0L505 0L505 0L455 0L455 0L404 0L404 0L354 0L354 0L303 0L303 0L253 0L253 0L202 0L202 0L152 0L152 0L101 0L101 0L51 0L51 0L0 0Z" fill="#d5acf7"></path><path d="M0 130L51 130L51 151L101 151L101 120L152 120L152 121L202 121L202 144L253 144L253 133L303 133L303 132L354 132L354 134L404 134L404 133L455 133L455 159L505 159L505 155L556 155L556 135L606 135L606 142L657 142L657 126L707 126L707 146L758 146L758 127L808 127L808 148L859 148L859 164L909 164L909 140L960 140L960 164L960 0L960 0L909 0L909 0L859 0L859 0L808 0L808 0L758 0L758 0L707 0L707 0L657 0L657 0L606 0L606 0L556 0L556 0L505 0L505 0L455 0L455 0L404 0L404 0L354 0L354 0L303 0L303 0L253 0L253 0L202 0L202 0L152 0L152 0L101 0L101 0L51 0L51 0L0 0Z" fill="#debcf9"></path><path d="M0 135L51 135L51 99L101 99L101 126L152 126L152 95L202 95L202 121L253 121L253 102L303 102L303 93L354 93L354 123L404 123L404 121L455 121L455 124L505 124L505 90L556 90L556 99L606 99L606 119L657 119L657 113L707 113L707 96L758 96L758 119L808 119L808 131L859 131L859 98L909 98L909 112L960 112L960 134L960 0L960 0L909 0L909 0L859 0L859 0L808 0L808 0L758 0L758 0L707 0L707 0L657 0L657 0L606 0L606 0L556 0L556 0L505 0L505 0L455 0L455 0L404 0L404 0L354 0L354 0L303 0L303 0L253 0L253 0L202 0L202 0L152 0L152 0L101 0L101 0L51 0L51 0L0 0Z" fill="#e7cdfb"></path><path d="M0 84L51 84L51 74L101 74L101 92L152 92L152 99L202 99L202 62L253 62L253 101L303 101L303 103L354 103L354 104L404 104L404 82L455 82L455 73L505 73L505 67L556 67L556 71L606 71L606 92L657 92L657 69L707 69L707 95L758 95L758 86L808 86L808 95L859 95L859 102L909 102L909 67L960 67L960 80L960 0L960 0L909 0L909 0L859 0L859 0L808 0L808 0L758 0L758 0L707 0L707 0L657 0L657 0L606 0L606 0L556 0L556 0L505 0L505 0L455 0L455 0L404 0L404 0L354 0L354 0L303 0L303 0L253 0L253 0L202 0L202 0L152 0L152 0L101 0L101 0L51 0L51 0L0 0Z" fill="#efddfc"></path><path d="M0 68L51 68L51 39L101 39L101 39L152 39L152 43L202 43L202 72L253 72L253 47L303 47L303 56L354 56L354 59L404 59L404 75L455 75L455 63L505 63L505 49L556 49L556 59L606 59L606 54L657 54L657 60L707 60L707 47L758 47L758 51L808 51L808 48L859 48L859 72L909 72L909 56L960 56L960 65L960 0L960 0L909 0L909 0L859 0L859 0L808 0L808 0L758 0L758 0L707 0L707 0L657 0L657 0L606 0L606 0L556 0L556 0L505 0L505 0L455 0L455 0L404 0L404 0L354 0L354 0L303 0L303 0L253 0L253 0L202 0L202 0L152 0L152 0L101 0L101 0L51 0L51 0L0 0Z" fill="#f7eefe"></path><path d="M0 11L51 11L51 36L101 36L101 41L152 41L152 40L202 40L202 12L253 12L253 24L303 24L303 15L354 15L354 49L404 49L404 12L455 12L455 47L505 47L505 21L556 21L556 38L606 38L606 16L657 16L657 48L707 48L707 27L758 27L758 36L808 36L808 48L859 48L859 30L909 30L909 35L960 35L960 24L960 0L960 0L909 0L909 0L859 0L859 0L808 0L808 0L758 0L758 0L707 0L707 0L657 0L657 0L606 0L606 0L556 0L556 0L505 0L505 0L455 0L455 0L404 0L404 0L354 0L354 0L303 0L303 0L253 0L253 0L202 0L202 0L152 0L152 0L101 0L101 0L51 0L51 0L0 0Z" fill="#ffffff"></path></svg>